<svg xmlns="http://www.w3.org/2000/svg" width="27.601" height="23.832" viewBox="0 0 27.601 23.832"><defs><style>.a{fill:#fff;}</style></defs><g transform="translate(0 -32.053)"><g transform="translate(0 32.053)"><g transform="translate(0 0)"><path class="a" d="M231.147,160.072l3.951,3.951.019-.207a3.766,3.766,0,0,0-3.763-3.763Z" transform="translate(-217.557 -152.527)"/><path class="a" d="M154.653,67.19a6.274,6.274,0,0,1,6.272,6.272,6.174,6.174,0,0,1-.445,2.289l3.669,3.669a14.9,14.9,0,0,0,4.309-5.958,14.843,14.843,0,0,0-13.8-9.407,14.669,14.669,0,0,0-5,.878l2.709,2.7A6.3,6.3,0,0,1,154.653,67.19Z" transform="translate(-140.856 -62.172)"/><path class="a" d="M1.254,33.652l2.86,2.86.571.571A14.856,14.856,0,0,0,0,43.342a14.817,14.817,0,0,0,19.3,8.347l.533.533,3.656,3.663,1.6-1.593L2.854,32.053Zm6.936,6.93,1.938,1.938a3.974,3.974,0,0,0-.094.822A3.766,3.766,0,0,0,13.8,47.1a3.867,3.867,0,0,0,.815-.094l1.938,1.938a6.17,6.17,0,0,1-2.753.665,6.231,6.231,0,0,1-5.607-9.031Z" transform="translate(0 -32.053)"/></g></g></g></svg>